<?xml version="1.0" encoding="UTF-8"?> <svg xmlns="http://www.w3.org/2000/svg" id="logo-dark" width="491" height="101" viewBox="0 0 491 101"><defs><style> .cls-1 { fill: #000000; } .cls-2 { fill: #d7fc69; } </style></defs><path id="valetex" class="cls-1" d="M133.082,99.079q13.064,0,20.8-7.488v5.585H171.9V60.114q0-12.184-8.118-18.975t-24.607-6.79a70.516,70.516,0,0,0-12.938,1.206,49.39,49.39,0,0,0-10.528,2.983V52.5a49.844,49.844,0,0,1,20.548-4.189q8.372,0,12.431,2.665t4.059,8.377v1.523a35.539,35.539,0,0,0-8.752-3.173,46.119,46.119,0,0,0-10.4-1.142q-12.306,0-19.027,5.648t-6.723,15.8q0,9.775,7.04,15.421t18.2,5.648h0Zm5.2-12.692q-5.2,0-7.991-2.158A7.386,7.386,0,0,1,127.5,78.01a7.779,7.779,0,0,1,2.854-6.536q2.855-2.219,8.181-2.221a25.084,25.084,0,0,1,14.207,4.315V79.66a14.369,14.369,0,0,1-5.962,4.95,19.829,19.829,0,0,1-8.5,1.777h0Zm46.3,10.789h19.153V3.379H184.58v93.8Zm67.48,1.9a86.227,86.227,0,0,0,13.953-1.142,49.975,49.975,0,0,0,11.416-3.046V81.437a53.717,53.717,0,0,1-10.782,2.792,74.572,74.572,0,0,1-12.05,1.015q-19.788,0-21.817-11.677h50.23V65.826a33.116,33.116,0,0,0-3.932-16.183A27.667,27.667,0,0,0,267.535,38.41q-7.611-4.061-18.519-4.062-16.618,0-25.559,8.758t-8.943,23.862q0,15.231,10.021,23.671t27.525,8.44h0Zm-19.28-37.95a12.593,12.593,0,0,1,4.566-9.392q4.186-3.427,11.416-3.427,7.354,0,11.543,3.364a12.511,12.511,0,0,1,4.566,9.456H232.78Zm86.379,37.95q8.877,0,14.714-2.538V82.2a16.736,16.736,0,0,1-7.991,2.031q-5.2,0-7.23-2.348t-2.03-7.679V50.087h14.333V36.252H316.622V17.976H297.469V36.252H288.59V50.087h8.879V76.741q0,10.537,5.517,16.437t16.173,5.9h0Zm58.6,0a86.227,86.227,0,0,0,13.953-1.142,49.99,49.99,0,0,0,11.416-3.046V81.437a53.735,53.735,0,0,1-10.782,2.792,74.581,74.581,0,0,1-12.05,1.015q-19.788,0-21.817-11.677h50.23V65.826a33.116,33.116,0,0,0-3.932-16.183A27.667,27.667,0,0,0,393.235,38.41q-7.611-4.061-18.519-4.062-16.619,0-25.559,8.758t-8.943,23.862q0,15.231,10.021,23.671t27.525,8.44h0Zm-19.28-37.95a12.59,12.59,0,0,1,4.566-9.392q4.186-3.427,11.416-3.427,7.355,0,11.543,3.364a12.511,12.511,0,0,1,4.566,9.456H358.48Zm58.346,36.046h21.31l15.475-18.658,15.6,18.658H490.4L464.266,65.7l24.481-29.446H467.31l-13.7,16.5-13.572-16.5H418.6L442.956,65.7Z" transform="translate(-0.219)"></path><path id="icon-2" class="cls-1" d="M49.787,58.331L83.82,0.013h33.118l-58.384,100.1L34.2,58.331H49.787Z" transform="translate(-0.219)"></path><path id="icon-1" class="cls-2" d="M50.7,0.013L25.436,43.326,0.219,0.013H50.7Z" transform="translate(-0.219)"></path></svg> 